<svg width="54" height="55" viewBox="0 0 54 55" fill="none" xmlns="http://www.w3.org/2000/svg">
<path d="M36.1035 35.0509L38.109 41.9655L43.3643 47.6251C44.0751 47.2156 44.6801 46.6211 45.1055 45.8839L49.9883 37.4289C50.4137 36.6943 50.6251 35.8726 50.6251 35.0509L43.1265 33.5977L36.1035 35.0509Z" fill="#EA4335"/>
<path d="M34.8219 7.68169C34.1112 7.27215 33.2947 7.04492 32.4439 7.04492H22.681C21.8355 7.04492 21.0111 7.27744 20.303 7.68169L22.4062 14.7654L27.5426 20.219L27.5611 20.256L32.7346 14.7364L34.8219 7.68169Z" fill="#188038"/>
<path d="M19.0189 35.0495L11.5336 33.332L4.5 35.0495C4.5 35.8685 4.71138 36.6876 5.13413 37.4248L10.0169 45.8825C10.4423 46.617 11.0474 47.2115 11.7581 47.6237L16.9342 42.2918L19.0189 35.0495Z" fill="#1967D2"/>
<path d="M43.2737 21.0466L36.5625 9.4209C36.1371 8.68373 35.5321 8.08923 34.8213 7.67969L27.5605 20.2539L36.1028 35.0503H50.6217C50.6217 34.2286 50.4103 33.4095 49.985 32.6723L43.2737 21.0466Z" fill="#FBBC04"/>
<path d="M36.1031 35.0508H19.0186L11.7578 47.625C12.4686 48.0346 13.285 48.2618 14.1358 48.2618H40.9833C41.8341 48.2618 42.6505 48.0346 43.3612 47.625L36.1031 35.0508Z" fill="#4285F4"/>
<path d="M27.5612 20.2539L20.303 7.67969C19.5923 8.08923 18.9899 8.68108 18.5645 9.41562L5.13413 32.6802C4.71138 33.4148 4.5 34.2339 4.5 35.0503H19.0189L27.5612 20.2539Z" fill="#34A853"/>
</svg>
