<svg width="54" height="54" viewBox="0 0 54 54" fill="none" xmlns="http://www.w3.org/2000/svg">
<mask id="mask0_1687_14817" style="mask-type:alpha" maskUnits="userSpaceOnUse" x="2" y="2" width="50" height="50">
<path d="M2.25 2.25H51.75V51.75H2.25V2.25Z" fill="white"/>
</mask>
<g mask="url(#mask0_1687_14817)">
<path fill-rule="evenodd" clip-rule="evenodd" d="M27 51.75C13.338 51.75 2.25 40.662 2.25 27C2.25 13.338 13.338 2.25 27 2.25C40.662 2.25 51.75 13.338 51.75 27C51.75 40.662 40.662 51.75 27 51.75Z" fill="#D90007"/>
<path fill-rule="evenodd" clip-rule="evenodd" d="M39.375 34.536C39.375 34.9382 39.0502 35.2476 38.648 35.2476H35.5233C35.4287 35.2492 35.3346 35.2321 35.2467 35.1971C35.1588 35.1621 35.0787 35.11 35.011 35.0438C34.9434 34.9776 34.8896 34.8986 34.8527 34.8115C34.8158 34.7243 34.7966 34.6307 34.7963 34.536V25.1929C34.7963 25.1063 34.688 25.0753 34.6416 25.1218L28.0364 31.5567C27.7599 31.8285 27.3877 31.9807 27 31.9807C26.6123 31.9807 26.2401 31.8285 25.9636 31.5567L19.3584 25.1218C19.312 25.0753 19.2038 25.1063 19.2038 25.196V34.536C19.2038 34.9382 18.8789 35.2476 18.4767 35.2476H15.352C15.2574 35.2492 15.1634 35.2321 15.0755 35.1971C14.9875 35.1621 14.9074 35.11 14.8398 35.0438C14.7721 34.9776 14.7183 34.8986 14.6815 34.8115C14.6446 34.7243 14.6254 34.6307 14.625 34.536V18.0897C14.625 17.6875 14.9498 17.375 15.352 17.375H17.5022C17.8889 17.375 18.2602 17.5235 18.5386 17.7927L26.737 25.79C26.8092 25.855 26.9029 25.891 27 25.891C27.0971 25.891 27.1908 25.855 27.263 25.79L35.4614 17.7927C35.7399 17.5246 36.1113 17.375 36.4978 17.375H38.648C39.0502 17.375 39.375 17.6875 39.375 18.0897V34.536" fill="white"/>
</g>
</svg>
