<svg width="54" height="54" viewBox="0 0 54 54" fill="none" xmlns="http://www.w3.org/2000/svg">
<path opacity="0.985601" fill-rule="evenodd" clip-rule="evenodd" d="M29.7691 11.9343C29.2217 11.865 28.7565 11.5008 28.5578 10.9861L26.8978 6.68597C26.7616 6.33325 27.051 5.96281 27.4262 6.00953L44.8669 8.18131C45.757 8.29215 46.5196 8.87128 46.8654 9.699L48.8059 14.3445L29.7691 11.9343Z" fill="white"/>
<path opacity="0.985601" fill-rule="evenodd" clip-rule="evenodd" d="M21.8874 11.9343C22.4348 11.865 22.9 11.5008 23.0987 10.9861L24.7587 6.68597C24.8949 6.33325 24.6055 5.96281 24.2303 6.00953L6.78964 8.18131C5.89948 8.29215 5.13688 8.87128 4.79112 9.699L2.85059 14.3445L10.7334 13.3465L21.8874 11.9343Z" fill="white"/>
<path fill-rule="evenodd" clip-rule="evenodd" d="M2.8125 14.3438H48.8058V40.2173C48.8058 42.7272 46.7711 44.7619 44.2612 44.7619H7.3571C4.84719 44.7619 2.8125 42.7272 2.8125 40.2173V14.3438Z" fill="white"/>
<path d="M20.6987 37.0918C20.6987 37.0918 23.2277 38.1143 25.7853 38.1143C28.3429 38.1143 30.9195 37.0918 30.9195 37.0918" stroke="#307DFF" stroke-width="2.55634" stroke-linecap="round"/>
<path d="M17.6328 24.3126V28.4028" stroke="#307DFF" stroke-width="4.09015" stroke-linecap="round"/>
<path d="M33.986 24.3126V28.4028" stroke="#307DFF" stroke-width="4.09015" stroke-linecap="round"/>
</svg>
